<svg xmlns="http://www.w3.org/2000/svg" width="13.59" height="19.813" viewBox="0 0 13.59 19.813">
  <defs>
    <style>
      .cls-1 {
        fill: #8a57fc;
        fill-rule: evenodd;
      }
    </style>
  </defs>
  <path id="icon_copy" data-name="icon copy" class="cls-1" d="M1288.02,232.6h-6.19a3.715,3.715,0,0,1-3.72-3.716V226.41a3.7,3.7,0,0,1,2.51-3.5,6.551,6.551,0,0,1-1.27-3.934c0-3.42,2.49-6.192,5.57-6.192s5.57,2.772,5.57,6.192a6.611,6.611,0,0,1-1.26,3.934,3.7,3.7,0,0,1,2.5,3.5v2.477A3.713,3.713,0,0,1,1288.02,232.6Zm1.24-13.624c0-2.736-1.94-4.953-4.34-4.953s-4.33,2.217-4.33,4.953,1.94,4.954,4.33,4.954S1289.26,221.715,1289.26,218.979Zm1.23,7.741a2.838,2.838,0,0,0-2.33-2.705,5.1,5.1,0,0,1-6.47,0,2.848,2.848,0,0,0-2.34,2.705v1.858a2.921,2.921,0,0,0,3.04,2.787h5.06a2.921,2.921,0,0,0,3.04-2.787V226.72Z" transform="translate(-1278.13 -212.781)"/>
</svg>
