<svg xmlns="http://www.w3.org/2000/svg" width="19.25" height="19.219" viewBox="0 0 19.25 19.219">
  <defs>
    <style>
      .cls-1 {
        fill: #fff;
        fill-rule: evenodd;
      }
    </style>
  </defs>
  <path id="icon" class="cls-1" d="M992.072,47.754l1.782,1.777c0.985,0.981.511,2.153,0,3.554a41.977,41.977,0,0,1-5.618,7.324,38.025,38.025,0,0,1-7.3,5.561c-1.3.667-2.581,0.982-3.565,0l-1.782-1.777a1.17,1.17,0,0,1,0-1.777l3.565-2.666a1.345,1.345,0,0,1,1.782,0h0l1.054,1.051a35.727,35.727,0,0,0,3.847-3.273,30.69,30.69,0,0,0,2.873-3.356l-1.091-1.087a1.335,1.335,0,0,1,0-1.777l2.673-3.555a1.262,1.262,0,0,1,1.782,0m-1.728,6.275L988.913,52.6a0.85,0.85,0,0,1,0-1.131l1.7-2.262a0.724,0.724,0,0,1,1.134,0l1.134,1.131a1.818,1.818,0,0,1,.081,1.858,37.516,37.516,0,0,1-5.346,7.109c-2.256,2.44-7.575,5.776-7.575,5.776A2.281,2.281,0,0,1,978.179,65l-1.134-1.131a0.848,0.848,0,0,1,0-1.131l2.269-1.7a0.855,0.855,0,0,1,1.134,0l1.4,1.394C982.174,62.206,987.424,58.765,990.344,54.029Z" transform="translate(-975.188 -47.375)"/>
</svg>
