<?xml version="1.0" encoding="UTF-8"?>
<!DOCTYPE svg PUBLIC "-//W3C//DTD SVG 1.1//EN" "http://www.w3.org/Graphics/SVG/1.1/DTD/svg11.dtd">
<!-- Creator: CorelDRAW X7 -->
<svg xmlns="http://www.w3.org/2000/svg" xml:space="preserve" width="277.08mm" height="400mm" version="1.1" style="shape-rendering:geometricPrecision; text-rendering:geometricPrecision; image-rendering:optimizeQuality; fill-rule:evenodd; clip-rule:evenodd"
viewBox="0 0 681 984"
 xmlns:xlink="http://www.w3.org/1999/xlink">
 <defs>
  <style type="text/css">
   <![CDATA[
    .fil0 {fill:white;fill-rule:nonzero}
    .fil1 {fill:url(#id0);fill-rule:nonzero}
   ]]>
  </style>
  <linearGradient id="id0" gradientUnits="userSpaceOnUse" x1="340.649" y1="786.641" x2="340.649" y2="0">
   <stop offset="0" style="stop-opacity:1; stop-color:#8A57FC"/>
   <stop offset="1" style="stop-opacity:1; stop-color:#DB52BC"/>
  </linearGradient>
 </defs>
 <g id="Слой_x0020_1">
  <metadata id="CorelCorpID_0Corel-Layer"/>
  <path class="fil0" d="M125 964l31 -88 17 0 31 88 -16 0 -8 -23 -31 0 -7 23 -17 0zm28 -36l23 0 -8 -23 -3 -14 0 0c-2,6 -3,10 -4,14l-8 23zm60 4l0 -56 16 0 0 56c0,6 2,10 5,14 4,3 8,5 14,5 6,0 11,-2 14,-5 4,-4 6,-8 6,-14l0 -56 16 0 0 56c0,10 -4,18 -10,24 -6,6 -15,9 -26,9 -10,0 -19,-3 -25,-9 -7,-6 -10,-14 -10,-24zm121 52l0 -119 13 0 0 119 -13 0zm64 -20l0 -88 29 0c8,0 13,1 17,2 4,2 8,5 11,9 2,4 4,9 4,15 0,6 -2,10 -4,15 -3,4 -6,7 -11,9l0 0c1,1 2,3 3,5l18 33 -18 0 -17 -33 -16 0 0 33 -16 0zm16 -47l15 0c4,0 7,-1 10,-4 2,-2 4,-6 4,-10 0,-6 -3,-10 -7,-12 -3,-1 -6,-1 -10,-1l-12 0 0 27zm54 47l31 -88 16 0 31 88 -16 0 -8 -23 -30 0 -8 23 -16 0zm28 -36l22 0 -7 -23 -4 -14 0 0c-1,6 -3,10 -4,14l-7 23z"/>
  <path class="fil1" d="M18 197l209 0 105 -182 9 -15 9 15 104 182 209 0 18 0 -9 15 -104 181 104 181 9 16 -18 0 -209 0 -104 181 -9 16 -9 -16 -105 -181 -209 0 -18 0 9 -15 105 -182 -105 -181 -9 -15 18 0zm28 354l119 -68 -40 -69 -79 137zm161 -93l123 -71 0 -141 -123 212zm134 -65l0 0 0 0 0 0zm0 12l-123 71 245 0 -122 -71zm-166 96l-119 68 159 0 -40 -68zm450 68l-119 -68 -40 68 159 0zm-274 -182l123 71 -123 -212 0 141zm165 96l119 68 -79 -137 -40 69zm-165 -424l0 138 79 0 -79 -138zm-21 138l0 -138 -79 138 79 0zm29 20l143 249 143 -249 -286 0zm125 280l-287 0 144 248 143 -248zm-305 -31l144 -249 -287 0 143 249z"/>
 </g>
</svg>
