<svg xmlns="http://www.w3.org/2000/svg" width="13.594" height="19.813" viewBox="0 0 13.594 19.813">
  <defs>
    <style>
      .cls-1 {
        fill: #fff;
        fill-rule: evenodd;
      }
    </style>
  </defs>
  <path id="icon" class="cls-1" d="M326.018,114.6h-6.192a3.715,3.715,0,0,1-3.716-3.715v-2.478a3.7,3.7,0,0,1,2.508-3.5,6.593,6.593,0,0,1-1.27-3.933c0-3.419,2.5-6.192,5.574-6.192s5.573,2.773,5.573,6.192a6.592,6.592,0,0,1-1.269,3.933,3.7,3.7,0,0,1,2.507,3.5v2.478A3.715,3.715,0,0,1,326.018,114.6Zm1.238-13.623c0-2.736-1.94-4.954-4.334-4.954s-4.335,2.218-4.335,4.954,1.941,4.954,4.335,4.954S327.256,103.715,327.256,100.979Zm1.239,7.741a2.845,2.845,0,0,0-2.338-2.7,5.1,5.1,0,0,1-6.47,0,2.846,2.846,0,0,0-2.339,2.7v1.857a2.923,2.923,0,0,0,3.04,2.787h5.067a2.922,2.922,0,0,0,3.04-2.787V108.72Z" transform="translate(-316.125 -94.781)"/>
</svg>
