<svg xmlns="http://www.w3.org/2000/svg" width="19.25" height="19.188" viewBox="0 0 19.25 19.188">
  <defs>
    <style>
      .cls-1 {
        fill: #262d47;
        fill-rule: evenodd;
      }
    </style>
  </defs>
  <path id="icon" class="cls-1" d="M330.072,149.754l1.782,1.777c0.985,0.982.511,2.154,0,3.555a42,42,0,0,1-5.618,7.324,38.016,38.016,0,0,1-7.3,5.561c-1.3.667-2.58,0.981-3.565,0l-1.782-1.777a1.17,1.17,0,0,1,0-1.777l3.565-2.667a1.347,1.347,0,0,1,1.782,0h0l1.054,1.052a35.684,35.684,0,0,0,3.847-3.273,30.625,30.625,0,0,0,2.873-3.356l-1.091-1.087a1.335,1.335,0,0,1,0-1.777l2.673-3.555a1.262,1.262,0,0,1,1.782,0m-1.728,6.275-1.431-1.429a0.85,0.85,0,0,1,0-1.131l1.7-2.261a0.724,0.724,0,0,1,1.134,0l1.134,1.131a1.817,1.817,0,0,1,.081,1.858,37.519,37.519,0,0,1-5.346,7.11c-2.256,2.44-7.574,5.776-7.574,5.776a2.284,2.284,0,0,1-1.864-.081l-1.134-1.132a0.848,0.848,0,0,1,0-1.13l2.269-1.7a0.857,0.857,0,0,1,1.134,0l1.4,1.394C320.174,164.205,325.424,160.765,328.344,156.029Z" transform="translate(-313.188 -149.375)"/>
</svg>
