<?xml version="1.0" encoding="UTF-8"?>
<!DOCTYPE svg PUBLIC "-//W3C//DTD SVG 1.1//EN" "http://www.w3.org/Graphics/SVG/1.1/DTD/svg11.dtd">
<!-- Creator: CorelDRAW X7 -->
<svg xmlns="http://www.w3.org/2000/svg" xml:space="preserve" width="100mm" height="144.363mm" version="1.1" style="shape-rendering:geometricPrecision; text-rendering:geometricPrecision; image-rendering:optimizeQuality; fill-rule:evenodd; clip-rule:evenodd"
viewBox="0 0 21622 31214"
 xmlns:xlink="http://www.w3.org/1999/xlink">
 <defs>
  <style type="text/css">
   <![CDATA[
    .fil0 {fill:#262D47;fill-rule:nonzero}
    .fil1 {fill:url(#id0);fill-rule:nonzero}
   ]]>
  </style>
  <linearGradient id="id0" gradientUnits="userSpaceOnUse" x1="10810.8" y1="24964.8" x2="10810.8" y2="0">
   <stop offset="0" style="stop-opacity:1; stop-color:#8A57FC"/>
   <stop offset="1" style="stop-opacity:1; stop-color:#DB52BC"/>
  </linearGradient>
 </defs>
 <g id="Слой_x0020_1">
  <metadata id="CorelCorpID_0Corel-Layer"/>
  <path class="fil0" d="M3982 30582l977 -2785 533 0 977 2785 -518 0 -239 -714 -977 0 -235 714 -518 0zm879 -1126l725 0 -247 -745 -110 -432 -7 0c-42,184 -79,327 -110,432l-251 745zm1898 126l0 -1785 506 0 0 1781c0,186 56,330 167,433 111,104 261,155 449,155 188,0 338,-51 449,-155 111,-103 167,-247 167,-433l0 -1781 506 0 0 1785c0,311 -103,563 -308,757 -205,193 -475,290 -810,290 -337,0 -609,-97 -816,-290 -206,-194 -310,-446 -310,-757zm3837 1632l0 -3754 423 0 0 3754 -423 0zm2047 -632l0 -2785 918 0c235,0 411,25 526,75 146,60 261,155 345,286 84,131 125,289 125,475 0,170 -41,324 -125,464 -84,140 -197,239 -341,297l0 7c23,29 53,78 90,145l573 1036 -569 0 -549 -1039 -487 0 0 1039 -506 0zm506 -1479l455 0c136,0 243,-40 322,-119 78,-80 118,-188 118,-324 0,-194 -74,-320 -220,-381 -71,-31 -173,-47 -306,-47l-369 0 0 871zm1699 1479l977 -2785 533 0 977 2785 -518 0 -239 -714 -977 0 -235 714 -518 0zm878 -1126l726 0 -247 -745 -110 -432 -8 0c-42,184 -78,327 -110,432l-251 745z"/>
  <path class="fil1" d="M568 6240l6640 0 3319 -5749 283 -491 284 492 3319 5748 6641 0 568 0 -285 493 -3319 5749 3319 5749 285 493 -568 0 -6640 0 -3320 5750 -283 491 -284 -491 -3319 -5750 -6640 0 -567 0 284 -491 3319 -5750 -3319 -5750 -285 -493 568 0zm894 11262l3780 -2183 -1260 -2182 -2520 4365zm5121 -2957l3899 -2251 0 -4502 -3899 6753zm4228 -2063l0 0 0 0 0 0zm0 378l-3898 2250 7796 0 -3898 -2250zm-5242 3026l-3778 2181 5037 0 -1259 -2181zm14261 2181l-3778 -2181 -1259 2181 5037 0zm-8691 -5773l3899 2251 -3899 -6753 0 4502zm5241 3025l3779 2182 -2520 -4363 -1259 2181zm-5241 -13441l0 4362 2519 0 -2519 -4362zm-657 4362l0 -4361 -2517 4361 2517 0zm896 657l4554 7887 4553 -7887 -9107 0zm3986 8870l-9106 0 4553 7887 4553 -7887zm-9674 -983l4553 -7887 -9107 0 4554 7887z"/>
 </g>
</svg>
