<svg xmlns="http://www.w3.org/2000/svg" width="19.81" height="14.88" viewBox="0 0 19.81 14.88">
  <defs>
    <style>
      .cls-1 {
        fill: #fff;
        fill-rule: evenodd;
      }
    </style>
  </defs>
  <path id="icon" class="cls-1" d="M1335.19,2924.92a5.086,5.086,0,0,1-4.95-4.94,4.989,4.989,0,0,1,3.73-4.74,5.568,5.568,0,0,1,10.55-2.06,5.89,5.89,0,0,1,5.53,5.87,6.149,6.149,0,0,1-6.19,5.88Zm-3.72-4.94c-0.02,3.33,3.72,3.71,3.72,3.71h8.67c2.23,0,5.08-2.22,4.95-4.95a4.958,4.958,0,0,0-5.24-4.33,4.034,4.034,0,0,0-4.05-3.1c-2.69,0-4.33,2.39-4.33,4.95A3.943,3.943,0,0,0,1331.47,2919.98Z" transform="translate(-1330.25 -2910.06)"/>
</svg>
