<svg xmlns="http://www.w3.org/2000/svg" width="53.969" height="58.03" viewBox="0 0 53.969 58.03">
  <defs>
    <style>
      .cls-1 {
        fill: #fff;
        fill-rule: evenodd;
      }
    </style>
  </defs>
  <path id="icon" class="cls-1" d="M994.745,2456.32a11.213,11.213,0,0,1-8.238-3.62l-12.523,7.11a10.406,10.406,0,0,1-.728,8.23l12.037,6.83a11.115,11.115,0,1,1-1.788,6,10.775,10.775,0,0,1,.122-1.21l-13.61-7.72,0.043-.09a11.138,11.138,0,1,1,1.449-16.38l12.523-7.1a11.01,11.01,0,0,1-.527-3.21A11.238,11.238,0,1,1,994.745,2456.32Zm0,31.24a6.7,6.7,0,1,0-6.744-6.69A6.721,6.721,0,0,0,994.745,2487.56Zm-31.472-31.24a6.7,6.7,0,1,0,6.744,6.69A6.721,6.721,0,0,0,963.273,2456.32Zm31.472-17.85a6.7,6.7,0,1,0,6.745,6.69A6.714,6.714,0,0,0,994.745,2438.47Z" transform="translate(-952.031 -2434)"/>
</svg>
