<svg xmlns="http://www.w3.org/2000/svg" width="19.813" height="19.81" viewBox="0 0 19.813 19.81">
  <defs>
    <style>
      .cls-1 {
        fill: #fff;
        fill-rule: evenodd;
      }
    </style>
  </defs>
  <path id="icon" class="cls-1" d="M960.32,2927.01a9.91,9.91,0,1,1,9.907-9.91A9.911,9.911,0,0,1,960.32,2927.01Zm7.18-5.06a8.585,8.585,0,0,0,1.465-4.23h-4.957a23.935,23.935,0,0,1-.31,3.35A21.209,21.209,0,0,1,967.5,2921.95Zm-9.628-4.23a21.682,21.682,0,0,0,.318,3.19q1.045-.09,2.13-0.09t2.129,0.09a21.547,21.547,0,0,0,.319-3.19h-4.9Zm4.9-1.24a21.547,21.547,0,0,0-.319-3.19q-1.046.09-2.129,0.09t-2.13-.09a21.682,21.682,0,0,0-.318,3.19h4.9Zm3.879,6.54a19.99,19.99,0,0,0-3.191-.73,20.542,20.542,0,0,1-1.01,3.21A8.741,8.741,0,0,0,966.647,2923.02Zm-6.929,2.72c0.2,0.01.4,0.03,0.6,0.03s0.4-.02.6-0.03a18.6,18.6,0,0,0,1.27-3.62c-0.616-.05-1.24-0.08-1.871-0.08s-1.256.03-1.871,0.08A18.529,18.529,0,0,0,959.718,2925.74Zm-1.525-.24a20.541,20.541,0,0,1-1.009-3.21,20.027,20.027,0,0,0-3.192.73A8.741,8.741,0,0,0,958.193,2925.5Zm-1.251-4.43a23.933,23.933,0,0,1-.311-3.35h-4.957a8.6,8.6,0,0,0,1.465,4.23A21.22,21.22,0,0,1,956.942,2921.07Zm-3.8-8.82a8.6,8.6,0,0,0-1.465,4.23h4.957a23.933,23.933,0,0,1,.311-3.35A21.22,21.22,0,0,1,953.139,2912.25Zm0.853-1.07a20.027,20.027,0,0,0,3.192.73,20.541,20.541,0,0,1,1.009-3.21A8.741,8.741,0,0,0,953.992,2911.18Zm6.929-2.72c-0.2-.01-0.4-0.03-0.6-0.03s-0.4.02-.6,0.03a18.529,18.529,0,0,0-1.269,3.62c0.615,0.05,1.239.08,1.871,0.08s1.255-.03,1.871-0.08A18.6,18.6,0,0,0,960.921,2908.46Zm1.525,0.24a20.542,20.542,0,0,1,1.01,3.21,19.99,19.99,0,0,0,3.191-.73A8.736,8.736,0,0,0,962.446,2908.7Zm1.252,4.43a23.935,23.935,0,0,1,.31,3.35h4.957a8.585,8.585,0,0,0-1.465-4.23A21.209,21.209,0,0,1,963.7,2913.13Z" transform="translate(-950.406 -2907.19)"/>
</svg>
