<svg xmlns="http://www.w3.org/2000/svg" width="19.813" height="19.81" viewBox="0 0 19.813 19.81">
  <defs>
    <style>
      .cls-1 {
        fill: #fff;
        fill-rule: evenodd;
      }
    </style>
  </defs>
  <path id="icon" class="cls-1" d="M588.993,2433.42h1.238v-1.24H570.415v1.24h1.239v11.77a2.366,2.366,0,0,0,2.477,2.48h3.715l-2.477,4.33,1.865-.01,2.47-4.32h1.238l2.47,4.32,1.865,0.01-2.477-4.33h3.716a2.366,2.366,0,0,0,2.477-2.48v-11.77Zm-1.23,0h-14.88c0,0.78.009,11.77,0.009,11.77a1.161,1.161,0,0,0,1.239,1.24h12.385a1.16,1.16,0,0,0,1.238-1.24S587.763,2434.67,587.763,2433.42Zm-3.724,11.15a0.622,0.622,0,0,1-.62-0.62v-5.57a0.62,0.62,0,1,1,1.239,0v5.57A0.621,0.621,0,0,1,584.039,2444.57Zm-3.716,0a0.621,0.621,0,0,1-.619-0.62v-7.43a0.619,0.619,0,1,1,1.238,0v7.43A0.621,0.621,0,0,1,580.323,2444.57Zm-3.715,0a0.622,0.622,0,0,1-.62-0.62v-2.48a0.62,0.62,0,1,1,1.239,0v2.48A0.621,0.621,0,0,1,576.608,2444.57Z" transform="translate(-570.406 -2432.19)"/>
</svg>
