<svg xmlns="http://www.w3.org/2000/svg" width="19.844" height="19.82" viewBox="0 0 19.844 19.82">
  <defs>
    <style>
      .cls-1 {
        fill: #fff;
        fill-rule: evenodd;
      }
    </style>
  </defs>
  <path id="icon" class="cls-1" d="M587.353,2919.98H582.4v4.96a2.477,2.477,0,0,1-4.954,0v-4.96h-4.954a2.475,2.475,0,1,1,0-4.95h4.954v-4.96a2.477,2.477,0,0,1,4.954,0v4.96h4.954A2.475,2.475,0,1,1,587.353,2919.98Zm-8.67,4.96a1.239,1.239,0,0,0,2.477,0v-6.2h6.193a1.235,1.235,0,1,0,0-2.47H581.16v-6.2a1.239,1.239,0,0,0-2.477,0v6.2h-6.192a1.235,1.235,0,1,0,0,2.47h6.192v6.2Z" transform="translate(-570 -2907.59)"/>
</svg>
