<?xml version="1.0" encoding="UTF-8"?>
<!DOCTYPE svg PUBLIC "-//W3C//DTD SVG 1.1//EN" "http://www.w3.org/Graphics/SVG/1.1/DTD/svg11.dtd">
<!-- Creator: CorelDRAW X7 -->
<svg xmlns="http://www.w3.org/2000/svg" xml:space="preserve" width="231.479mm" height="200mm" version="1.1" style="shape-rendering:geometricPrecision; text-rendering:geometricPrecision; image-rendering:optimizeQuality; fill-rule:evenodd; clip-rule:evenodd"
viewBox="0 0 364 315"
 xmlns:xlink="http://www.w3.org/1999/xlink">
 <defs>
  <style type="text/css">
   <![CDATA[
    .fil0 {fill:#262D47}
   ]]>
  </style>
 </defs>
 <g id="Слой_x0020_1">
  <metadata id="CorelCorpID_0Corel-Layer"/>
  <path class="fil0" d="M194 249l-52 48c0,0 -4,3 -9,1 0,0 -4,0 -9,-15 -4,-16 -29,-96 -29,-96l0 0 0 0 -81 -28c0,0 -13,-4 -14,-14 -1,-9 14,-15 14,-15l324 -127c0,0 26,-11 26,8l-58 290c0,0 -8,21 -30,11l-82 -63zm107 -186c1,-7 -11,0 -11,0l-184 117c9,29 20,63 30,96l8 -68c0,0 147,-133 153,-138 6,-6 4,-7 4,-7z"/>
 </g>
</svg>
