<svg xmlns="http://www.w3.org/2000/svg" width="19.25" height="19.21" viewBox="0 0 19.25 19.21">
  <defs>
    <style>
      .cls-1 {
        fill: #db52bc;
        fill-rule: evenodd;
      }
    </style>
  </defs>
  <path id="icon" class="cls-1" d="M422.072,6241.75l1.782,1.78c0.985,0.98.511,2.16,0,3.56a42.051,42.051,0,0,1-5.618,7.32,37.937,37.937,0,0,1-7.3,5.56c-1.3.67-2.581,0.98-3.565,0l-1.782-1.78a1.162,1.162,0,0,1,0-1.77l3.565-2.67a1.343,1.343,0,0,1,1.782,0h0l1.054,1.05a35.988,35.988,0,0,0,3.847-3.27,30.192,30.192,0,0,0,2.873-3.36l-1.091-1.08a1.339,1.339,0,0,1,0-1.78l2.673-3.56a1.264,1.264,0,0,1,1.782,0m-1.728,6.28-1.431-1.43a0.849,0.849,0,0,1,0-1.13l1.7-2.26a0.724,0.724,0,0,1,1.134,0l1.134,1.13a1.821,1.821,0,0,1,.081,1.86,37.488,37.488,0,0,1-5.346,7.11c-2.256,2.44-7.575,5.77-7.575,5.77a2.27,2.27,0,0,1-1.863-.08l-1.134-1.13a0.848,0.848,0,0,1,0-1.13l2.269-1.7a0.858,0.858,0,0,1,1.134,0l1.4,1.4C412.174,6256.21,417.424,6252.77,420.344,6248.03Z" transform="translate(-405.188 -6241.38)"/>
</svg>
