<?xml version="1.0" encoding="UTF-8"?>
<!DOCTYPE svg PUBLIC "-//W3C//DTD SVG 1.1//EN" "http://www.w3.org/Graphics/SVG/1.1/DTD/svg11.dtd">
<!-- Creator: CorelDRAW X7 -->
<svg xmlns="http://www.w3.org/2000/svg" xml:space="preserve" width="70" height="81" version="1.1" style="shape-rendering:geometricPrecision; text-rendering:geometricPrecision; image-rendering:optimizeQuality; fill-rule:evenodd; clip-rule:evenodd"
viewBox="0 0 281 324"
 xmlns:xlink="http://www.w3.org/1999/xlink">
 <defs>
  <style type="text/css">
   <![CDATA[
    .fil0 {fill:url(#id0);fill-rule:nonzero}
   ]]>
  </style>
  <linearGradient id="id0" gradientUnits="userSpaceOnUse" x1="140.445" y1="324.321" x2="140.445" y2="-0.00018726">
   <stop offset="0" style="stop-opacity:1; stop-color:#8A57FC"/>
   <stop offset="1" style="stop-opacity:1; stop-color:#DB52BC"/>
  </linearGradient>
 </defs>
 <g id="Слой_x0020_1">
  <metadata id="CorelCorpID_0Corel-Layer"/>
  <path class="fil0" d="M7 81l87 0 43 -75 3 -6 4 6 43 75 87 0 7 0 -4 6 -43 75 43 75 4 6 -7 0 -87 0 -43 75 -4 6 -3 -6 -43 -75 -87 0 -7 0 4 -6 43 -75 -43 -75 -4 -6 7 0zm12 146l49 -28 -16 -28 -33 56zm67 -38l50 -29 0 -59 -50 88zm54 -27l0 0 0 0 0 0zm0 5l-50 29 101 0 -51 -29zm-68 39l-49 29 66 0 -17 -29zm186 29l-49 -29 -17 29 66 0zm-113 -75l50 29 -50 -88 0 59zm68 39l49 28 -33 -56 -16 28zm-68 -175l0 57 32 0 -32 -57zm-9 57l0 -57 -33 57 33 0zm12 9l59 102 59 -102 -118 0zm52 115l-119 0 59 102 60 -102zm-126 -13l59 -102 -118 0 59 102z"/>
 </g>
</svg>
