<?xml version="1.0" encoding="UTF-8"?>
<!DOCTYPE svg PUBLIC "-//W3C//DTD SVG 1.1//EN" "http://www.w3.org/Graphics/SVG/1.1/DTD/svg11.dtd">
<!-- Creator: CorelDRAW X7 -->
<svg xmlns="http://www.w3.org/2000/svg" xml:space="preserve" width="199.102mm" height="200mm" version="1.1" style="shape-rendering:geometricPrecision; text-rendering:geometricPrecision; image-rendering:optimizeQuality; fill-rule:evenodd; clip-rule:evenodd"
viewBox="0 0 271 273"
 xmlns:xlink="http://www.w3.org/1999/xlink">
 <defs>
  <style type="text/css">
   <![CDATA[
    .fil0 {fill:#262D47}
   ]]>
  </style>
 </defs>
 <g id="Слой_x0020_1">
  <metadata id="CorelCorpID_0Corel-Layer"/>
  <path class="fil0" d="M198 163c-3,-1 -20,-9 -23,-11 -3,-1 -5,-1 -8,2 -2,4 -8,11 -10,13 -2,3 -4,3 -8,1 -3,-1 -14,-5 -27,-17 -10,-9 -17,-20 -19,-23 -2,-3 0,-5 2,-7 1,-1 3,-4 5,-6 2,-2 2,-3 3,-5 1,-3 1,-5 0,-6 -1,-2 -8,-19 -10,-25 -3,-7 -6,-6 -8,-6 -2,0 -4,0 -7,0 -2,0 -5,1 -9,4 -3,3 -11,11 -11,28 0,17 12,33 13,35 2,2 24,36 58,51 8,4 14,6 19,7 8,3 16,2 22,1 6,0 20,-8 22,-16 3,-7 3,-14 2,-16 0,-1 -3,-2 -6,-4zm-62 85l0 0c-20,0 -40,-6 -57,-16l-4 -3 -43 12 12 -42 -3 -4c-11,-18 -17,-39 -17,-60 0,-62 50,-112 112,-112 30,0 59,12 80,33 21,21 33,49 33,79 0,62 -51,113 -113,113zm96 -208c-26,-26 -60,-40 -96,-40 -74,0 -135,61 -135,135 0,24 6,47 18,68l-19 70 72 -19c19,11 42,16 64,16l0 0c75,0 135,-60 135,-135 0,-36 -14,-70 -39,-95z"/>
 </g>
</svg>
