<?xml version="1.0" encoding="UTF-8"?>
<!DOCTYPE svg PUBLIC "-//W3C//DTD SVG 1.1//EN" "http://www.w3.org/Graphics/SVG/1.1/DTD/svg11.dtd">
<!-- Creator: CorelDRAW X7 -->
<svg xmlns="http://www.w3.org/2000/svg" xml:space="preserve" width="200.009mm" height="200mm" version="1.1" style="shape-rendering:geometricPrecision; text-rendering:geometricPrecision; image-rendering:optimizeQuality; fill-rule:evenodd; clip-rule:evenodd"
viewBox="0 0 278 278"
 xmlns:xlink="http://www.w3.org/1999/xlink">
 <defs>
  <style type="text/css">
   <![CDATA[
    .fil0 {fill:#262D47}
   ]]>
  </style>
 </defs>
 <g id="Слой_x0020_1">
  <metadata id="CorelCorpID_0Corel-Layer"/>
  <path class="fil0" d="M139 185c-26,0 -46,-21 -46,-46 0,-26 20,-46 46,-46 25,0 46,20 46,46 0,25 -21,46 -46,46zm0 -185c-38,0 -43,0 -57,1 -15,1 -25,3 -34,6 -9,4 -17,9 -25,16 -7,8 -12,16 -16,25 -3,9 -5,19 -6,34 -1,14 -1,19 -1,57 0,38 0,42 1,57 1,15 3,25 6,34 4,9 9,17 16,24 8,8 16,13 25,16 9,4 19,6 34,7 14,1 19,1 57,1 38,0 42,0 57,-1 15,-1 25,-3 34,-7 9,-3 17,-8 24,-16 8,-7 13,-15 16,-24 4,-9 6,-19 7,-34 1,-15 1,-19 1,-57 0,-38 0,-43 -1,-57 -1,-15 -3,-25 -7,-34 -3,-9 -8,-17 -16,-25 -7,-7 -15,-12 -24,-16 -9,-3 -19,-5 -34,-6 -15,-1 -19,-1 -57,-1l0 0zm0 25c37,0 41,0 56,1 14,0 21,3 26,5 6,2 11,5 16,10 5,5 8,9 10,16 2,5 4,12 5,26 1,14 1,19 1,56 0,37 0,41 -1,56 -1,14 -3,21 -5,26 -2,6 -5,11 -10,16 -5,5 -10,8 -16,10 -5,2 -12,4 -26,5 -15,1 -19,1 -56,1 -37,0 -42,0 -56,-1 -14,-1 -21,-3 -26,-5 -7,-2 -11,-5 -16,-10 -5,-5 -8,-10 -10,-16 -2,-5 -5,-12 -5,-26 -1,-15 -1,-19 -1,-56 0,-37 0,-42 1,-56 0,-14 3,-21 5,-26 2,-7 5,-11 10,-16 5,-5 9,-8 16,-10 5,-2 12,-5 26,-5 14,-1 19,-1 56,-1zm91 40c0,9 -8,16 -17,16 -9,0 -17,-7 -17,-16 0,-9 8,-17 17,-17 9,0 17,8 17,17zm-91 3c-40,0 -71,31 -71,71 0,39 31,71 71,71 39,0 71,-32 71,-71 0,-40 -32,-71 -71,-71z"/>
 </g>
</svg>
