<?xml version="1.0" encoding="UTF-8"?>
<!DOCTYPE svg PUBLIC "-//W3C//DTD SVG 1.1//EN" "http://www.w3.org/Graphics/SVG/1.1/DTD/svg11.dtd">
<!-- Creator: CorelDRAW X7 -->
<svg xmlns="http://www.w3.org/2000/svg" xml:space="preserve" width="284.366mm" height="200mm" version="1.1" style="shape-rendering:geometricPrecision; text-rendering:geometricPrecision; image-rendering:optimizeQuality; fill-rule:evenodd; clip-rule:evenodd"
viewBox="0 0 561 395"
 xmlns:xlink="http://www.w3.org/1999/xlink">
 <defs>
  <style type="text/css">
   <![CDATA[
    .fil0 {fill:#262D47}
   ]]>
  </style>
 </defs>
 <g id="Слой_x0020_1">
  <metadata id="CorelCorpID_0Corel-Layer"/>
  <path class="fil0" d="M556 85c0,0 -6,-38 -22,-56 -22,-22 -46,-22 -57,-23 -78,-6 -196,-6 -196,-6l0 0c0,0 -118,0 -197,6 -11,1 -35,1 -56,23 -17,17 -22,56 -22,56 0,0 -6,46 -6,91l0 43c0,45 6,91 6,91 0,0 5,38 22,55 21,23 49,22 62,24 45,5 191,6 191,6 0,0 118,0 196,-6 11,-1 35,-1 57,-24 16,-17 22,-55 22,-55 0,0 5,-46 5,-91l0 -43c0,-45 -5,-91 -5,-91zm-333 185l151 -78 -151 -79 0 157z"/>
 </g>
</svg>
