<svg xmlns="http://www.w3.org/2000/svg" width="12.375" height="19.813" viewBox="0 0 12.375 19.813">
  <defs>
    <style>
      .cls-1 {
        fill: #8a57fc;
        fill-rule: evenodd;
      }
    </style>
  </defs>
  <path id="icon" class="cls-1" d="M437.524,466.6a6.184,6.184,0,0,1-4.954-9.9v-4.965a4.954,4.954,0,0,1,9.908,0v4.965A6.185,6.185,0,0,1,437.524,466.6Zm3.715-14.862a3.716,3.716,0,0,0-7.431,0v3.724a6.159,6.159,0,0,1,7.431,0v-3.724Zm1.239,8.669a4.954,4.954,0,1,1-4.954-4.954A5.078,5.078,0,0,1,442.478,460.41Zm-4.954,2.477a0.619,0.619,0,0,1-.619-0.619v-2.477a0.619,0.619,0,0,1,1.238,0v2.477A0.619,0.619,0,0,1,437.524,462.887Z" transform="translate(-431.344 -446.781)"/>
</svg>
