<svg xmlns="http://www.w3.org/2000/svg" width="16.125" height="19.812" viewBox="0 0 16.125 19.812">
  <defs>
    <style>
      .cls-1 {
        fill: #8a57fc;
        fill-rule: evenodd;
      }
    </style>
  </defs>
  <path id="icon" class="cls-1" d="M444.256,478.494a3.9,3.9,0,0,0-3.037,4.364c-1.938-2.278-1.858-4.9-1.858-8.67-6.213,2.343-4.768,9.1-4.954,11.147-1.562-1.28-1.858-4.335-1.858-4.335-1.65.849-2.477,3.115-2.477,4.954a8.051,8.051,0,0,0,16.1,0C446.173,483.311,444.232,482.092,444.256,478.494Zm-1.014,2.176c-0.954.418-.979,2.683-0.767,4.045-3.71-.666-4.541-5.228-4.258-8.624-3.2,2.16-2.515,8.409-2.383,10.96-3.039.176-3.969-3.182-3.9-3.574a2.993,2.993,0,0,0-.619,2.245,7.191,7.191,0,0,0,7.121,7.044,7.1,7.1,0,0,0,6.455-6.718C444.887,484.043,443.344,482.756,443.242,480.67Z" transform="translate(-430.063 -474.188)"/>
</svg>
