<svg xmlns="http://www.w3.org/2000/svg" width="12.38" height="19.813" viewBox="0 0 12.38 19.813">
  <defs>
    <style>
      .cls-1 {
        fill: #8a57fc;
        fill-rule: evenodd;
      }
    </style>
  </defs>
  <path id="icon" class="cls-1" d="M1260.52,324.6a6.183,6.183,0,0,1-4.95-9.9v-4.965a4.955,4.955,0,0,1,9.91,0v4.965A6.183,6.183,0,0,1,1260.52,324.6Zm3.72-14.862a3.715,3.715,0,1,0-7.43,0v3.724a6.157,6.157,0,0,1,7.43,0v-3.724Zm1.24,8.67a4.955,4.955,0,1,1-4.96-4.955A5.079,5.079,0,0,1,1265.48,318.411Zm-4.96,2.476a0.621,0.621,0,0,1-.62-0.619v-2.477a0.621,0.621,0,0,1,.62-0.619,0.615,0.615,0,0,1,.62.619v2.477A0.615,0.615,0,0,1,1260.52,320.887Z" transform="translate(-1254.34 -304.781)"/>
</svg>
