<svg xmlns="http://www.w3.org/2000/svg" width="19.813" height="18.656" viewBox="0 0 19.813 18.656">
  <defs>
    <style>
      .cls-1 {
        fill: #8a57fc;
        fill-rule: evenodd;
      }
    </style>
  </defs>
  <path id="icon" class="cls-1" d="M446.571,512.343l-7.716,9.231c-0.864.915-1.027,0.915-1.891,0l-7.7-9.231a6.077,6.077,0,0,1-1.255-3.5,5.084,5.084,0,0,1,4.954-5.225,6.848,6.848,0,0,1,4.954,2.477c1.328-1.266,2.89-2.477,4.954-2.477a5.084,5.084,0,0,1,4.954,5.225A5.37,5.37,0,0,1,446.571,512.343Zm-1.222-.257a4.733,4.733,0,0,0,1.239-3.247,3.918,3.918,0,0,0-3.716-4.064c-1.806,0-3.882,1.878-4.954,3.22-1.1-1.39-3.148-3.235-4.954-3.22a3.89,3.89,0,0,0-3.715,4.064,5.078,5.078,0,0,0,1.238,3.211l7.431,8.9Z" transform="translate(-428 -503.625)"/>
</svg>
