<svg xmlns="http://www.w3.org/2000/svg" width="14" height="20" viewBox="0 0 14 20">
  <defs>
    <style>
      .cls-1 {
        fill: #262d47;
        fill-rule: evenodd;
      }
    </style>
  </defs>
  <path id="icon" class="cls-1" d="M1501.02,67.6h-6.19a3.714,3.714,0,0,1-3.72-3.715V61.409a3.7,3.7,0,0,1,2.51-3.5,6.546,6.546,0,0,1-1.27-3.933c0-3.42,2.49-6.192,5.57-6.192s5.57,2.773,5.57,6.192a6.606,6.606,0,0,1-1.26,3.933,3.7,3.7,0,0,1,2.5,3.5v2.478A3.712,3.712,0,0,1,1501.02,67.6Zm1.24-13.623c0-2.736-1.94-4.954-4.34-4.954s-4.33,2.218-4.33,4.954,1.94,4.954,4.33,4.954S1502.26,56.715,1502.26,53.979Zm1.23,7.741a2.837,2.837,0,0,0-2.33-2.7,5.1,5.1,0,0,1-6.47,0,2.847,2.847,0,0,0-2.34,2.7v1.858a2.921,2.921,0,0,0,3.04,2.787h5.06a2.921,2.921,0,0,0,3.04-2.787V61.719Z" transform="translate(-1491.13 -47.781)"/>
</svg>
